<svg width="3006" height="1275" viewBox="0 0 3006 1275" fill="none" xmlns="http://www.w3.org/2000/svg">
<g clip-path="url(#clip0_3_1013)">
<path d="M760.013 585.999C778.739 620.3 787.616 656.452 785.401 695.285C782.715 742.372 766.423 785.021 743.451 825.506C716.763 872.54 681.942 913.079 642.834 950.072C627.351 964.717 611.982 979.626 595.319 992.849C566.936 1015.37 537.574 1036.67 508.618 1058.47C501.311 1063.97 494.073 1069.57 486.649 1074.91C461.117 1093.26 439.819 1093.8 413.69 1076.05C394.449 1062.97 375.489 1049.46 356.739 1035.69C311.29 1002.32 268.253 966.123 229.546 924.987C193.383 886.553 161.507 845.062 138.507 797.225C126.523 772.301 117.68 746.361 114.291 718.886C107.218 661.543 117.11 607.809 152.392 560.919C181.346 522.438 220.677 499.742 267.983 490.875C270.752 490.356 273.526 489.843 276.315 489.455C279.075 489.071 281.858 488.85 285.355 488.481C264.916 452.145 257.354 413.438 261.373 372.47C246.505 370.606 245.34 367.48 254.621 354.223C253.276 352.296 251.274 350.449 250.601 348.202C249.785 345.476 249.034 341.832 250.224 339.669C251.298 337.718 255.435 335.783 257.51 336.367C263.687 338.108 264.986 334.549 268.142 330.439C278.546 316.89 282.925 299.972 293.615 286.675C294.924 285.047 294.757 282.259 295.356 280.03C295.984 277.694 296.329 275.168 297.486 273.113C299.182 270.099 301.491 267.429 303.61 264.515C301.473 261.581 299.456 258.741 297.365 255.957C294.782 252.519 294.614 248.946 296.696 245.261C298.739 241.645 301.941 238.836 305.999 240.142C315.343 243.149 319.578 239.011 321.972 230.632C323.08 226.754 326.621 225.719 330.344 225.684C334.238 225.648 337.545 226.727 339.259 230.679C340.291 233.057 341.433 235.387 342.676 238.063C363.051 224.232 384.993 214.589 409.297 209.292C408.416 207.843 407.834 206.724 407.104 205.712C403.734 201.039 404.262 196.302 407.19 191.792C410.054 187.381 414.122 185.372 419.575 186.447C422.988 187.121 426.487 187.524 429.96 187.619C430.991 187.648 432.485 186.447 433.036 185.418C434.749 182.218 436.26 178.888 437.574 175.502C439.604 170.272 443.77 168.111 448.865 168.108C453.926 168.106 458.282 170.041 460.174 175.396C460.503 176.328 461.004 177.198 461.405 178.106C465.85 188.171 465.903 188.489 476.667 186.671C482.807 185.634 487.529 186.75 490.872 192.078C494.186 197.358 493.788 202.437 489.68 207.197C489.272 207.67 489.1 208.347 488.541 209.503C512.956 215.043 535.452 224.542 556.356 238.691C559.684 232.525 560.77 224.395 570.443 225.744C579.401 226.994 578.217 235.937 582.838 241.173C585.377 240.867 588.338 240.585 591.275 240.14C595.953 239.43 599.844 240.434 602.43 244.757C604.954 248.977 604.554 252.879 601.489 256.69C599.517 259.142 597.761 261.767 595.748 264.536C597.46 266.87 599.065 269.17 600.786 271.38C603.456 274.808 605.208 278.285 603.292 282.828C602.86 283.853 603.711 285.636 604.359 286.866C610.605 298.711 616.928 310.515 623.247 322.322C623.775 323.308 624.32 324.938 625.055 325.059C630.532 325.957 631.884 330.381 633.412 334.551C634.705 338.08 637.288 336.965 639.568 336.488C642.982 335.776 646.244 335.461 648.758 338.424C652.052 342.305 651.12 345.947 648.05 349.558C646.09 351.864 643.58 354.054 646.938 357.518C649.797 360.467 652.518 363.85 649.799 368.554C647.231 372.996 643.119 372.091 639.182 371.957C638.36 371.929 637.541 371.806 636.148 371.673C637.952 392.032 637.671 412.182 633.572 432.147C629.484 452.058 622.428 470.856 612.2 488.943C619.611 489.938 626.626 490.669 633.565 491.845C673.999 498.697 707.244 518.54 733.853 549.232C743.585 560.457 751.271 573.458 760.013 585.999ZM495.381 606.541C495.381 588.293 495.381 570.045 495.381 551.42C482.509 560.75 471.001 571.457 460.43 583.213C452.692 591.82 447.098 591.929 438.57 583.782C430.861 576.417 423.126 569.077 415.293 561.846C412.425 559.197 409.24 556.892 405.397 553.78C405.397 555.919 405.388 556.844 405.398 557.769C405.606 577.262 405.972 596.754 406 616.247C406.166 730.539 407.011 844.858 395.957 958.814C393.825 980.789 391.108 1002.73 383.137 1024.39C400.289 1036.12 417.277 1048.39 434.936 1059.61C446.53 1066.97 458.198 1064.15 468.907 1056.34C483.832 1045.45 498.776 1034.59 513.775 1023.8C515.815 1022.33 516.248 1021.06 515.692 1018.47C512.627 1004.18 508.716 989.926 507.303 975.446C503.664 938.163 499.482 900.809 498.586 863.409C496.541 778.14 496.334 692.826 495.381 606.541ZM145.604 629.12C132.99 670.505 134.901 711.558 147.862 752.348C151.104 751.113 153.838 749.992 156.626 749.022C176.868 741.984 196.57 733.697 215.153 722.977C272.49 689.9 312.428 642.865 330.614 578.474C336.058 559.198 338.676 539.539 338.374 519.404C277.379 497.23 175.713 530.147 145.604 629.12ZM586.244 621.13C620.62 689.6 678.985 728.165 749.108 752.374C749.58 751.544 749.896 751.164 750.031 750.728C757.918 725.229 762.323 699.377 760.263 672.467C758.692 651.948 754.216 632.285 745.944 613.577C727.539 571.952 698.578 540.706 655.674 523.567C632.034 514.124 607.476 512.194 582.435 515.148C575.52 515.963 568.718 517.732 560.953 519.24C563.58 537.262 565.51 554.504 568.735 571.501C571.977 588.589 578.187 604.838 586.244 621.13ZM330.684 751.079C332.302 712.953 333.921 674.826 335.539 636.7C335.121 636.597 334.703 636.495 334.285 636.393C315.879 671.08 290.553 699.736 259.246 723.194C228.047 746.57 193.347 763.1 156.262 775.266C172.487 813.166 195.54 846.051 221.036 877.292C246.647 908.672 275.192 937.218 307.269 964.51C310.03 949.883 313.049 936.657 314.933 923.271C317.778 903.055 320.147 882.758 322.139 862.439C324.426 839.111 326.172 815.728 327.976 792.356C329.013 778.92 329.7 765.457 330.684 751.079ZM572.1 773.261C572.747 782.886 573.357 792.514 574.05 802.137C575.078 816.401 575.877 830.691 577.292 844.918C579.626 868.38 582.042 891.845 585.066 915.225C587.033 930.433 590.14 945.494 592.784 960.9C608.995 952.307 674.87 882.404 699.275 848.17C715.476 825.445 729.789 801.637 740.713 775.52C666.462 750.012 605.186 708.929 566.822 638.512C566.177 639.815 566.017 640.727 566.047 641.633C566.44 653.448 566.73 665.269 567.297 677.076C568.822 708.825 570.469 740.567 572.1 773.261ZM357.933 263.781C359.764 266.833 361.382 270.041 363.481 272.897C366.178 276.569 366.482 280.191 364.17 284.006C361.892 287.764 358.587 289.389 354.088 288.942C344.1 287.952 344.007 287.996 339.656 297.461C337.83 301.433 334.937 303.26 330.679 303.257C326.491 303.254 323.245 301.841 321.613 297.658C321.121 296.398 320.3 295.267 319.423 293.71C309.544 306.275 302.098 319.541 296.458 333.831C296.118 334.691 296.255 336.189 296.807 336.882C302.191 343.639 302.352 343.703 297.281 350.27C295.12 353.067 294.543 355.34 297.295 357.949C298.124 358.736 299.081 359.745 299.267 360.78C299.703 363.202 300.681 366.298 299.631 368.013C298.428 369.978 295.384 371.087 292.921 371.915C291.154 372.509 289.027 372.031 286.752 372.031C286.514 373.365 286.101 374.639 286.088 375.917C285.986 386.048 285.414 396.213 286.014 406.306C287.717 434.943 297.354 461.012 312.854 484.998C313.668 486.259 315.078 487.671 316.433 487.956C323.171 489.373 329.983 490.435 336.966 491.656C298.586 424.895 327.297 355.5 364.027 324.407C405.579 289.232 467.309 283.093 514.313 311.085C545.615 329.726 566.007 356.886 575.196 392.208C584.453 427.788 577.857 461.104 559.064 493.365C565.861 492.113 571.344 490.626 576.904 490.236C580.96 489.952 583.077 488.171 585.119 485.004C602.851 457.516 611.956 427.388 612.705 394.768C612.878 387.225 611.967 379.657 611.67 374.207C606.554 371.72 602.134 370.861 599.888 368.181C596.376 363.993 600.149 360.048 602.955 356.853C605.396 354.074 603.687 352.428 602.1 350.484C599.606 347.429 596.756 343.59 599.724 340.267C603.247 336.322 601.487 333.297 599.946 329.941C597.454 324.512 594.979 319.041 591.99 313.882C588.238 307.403 583.974 301.221 579.525 294.277C578.553 296.213 578.093 297.074 577.681 297.959C575.828 301.939 572.57 303.378 568.361 303.251C564.295 303.129 561.622 301.314 559.86 297.535C555.508 288.201 555.399 288.204 545.007 288.942C540.567 289.258 537.188 287.765 535.092 283.765C533.036 279.84 533.411 276.128 536.123 272.599C538.14 269.974 540.049 267.268 542.202 264.332C539.195 260.596 536.945 255.984 533.257 253.553C521.048 245.507 507.578 240.018 493.106 236.222C490.624 244.991 485.245 248.253 476.196 247.185C465.482 245.92 465.349 246.416 460.971 256.586C459.33 260.399 457.362 263.689 453.113 264.964C445.938 267.118 440.368 264.37 437.113 257.054C432.312 246.263 432.312 246.263 420.657 247.062C419.993 247.107 419.329 247.167 418.665 247.222C412.714 247.715 408.781 245.502 406.223 240.173C405.595 238.864 405.074 237.503 404.358 235.825C397.912 238.215 391.664 240.408 385.51 242.841C374.631 247.142 364.052 251.915 357.933 263.781ZM397.204 397.677C365.144 426.291 360.954 474.027 387.908 506.755C391.19 510.74 395.53 514.328 400.107 516.694C424.581 529.351 450.306 532.33 477.023 525.162C486.99 522.488 497.476 519.887 504.748 512.353C523.174 493.267 531.418 470.132 526.353 443.799C514.581 382.605 446.334 358.091 397.204 397.677ZM360.99 623.489C360.734 630.148 360.466 636.806 360.224 643.465C357.087 729.862 353.297 816.223 342.956 902.13C339.84 928.018 337.409 954.098 328.382 978.906C328.003 979.948 328.509 982.016 329.342 982.688C339.944 991.243 350.682 999.629 362.356 1008.82C364.669 996.391 367.367 985.043 368.818 973.537C375.035 924.246 377.813 874.686 378.937 825.053C379.974 779.254 380.647 733.44 380.772 687.631C380.906 638.654 380.221 589.673 379.832 540.695C379.822 539.341 379.529 537.285 378.65 536.761C373.912 533.936 368.947 531.493 363.535 528.641C362.671 560.589 361.835 591.542 360.99 623.489ZM521.761 540.628C521.453 600.445 520.59 660.265 520.97 720.078C521.501 803.71 522.448 887.363 532.054 970.602C533.389 982.174 535.8 993.623 537.891 1006.2C547.199 998.919 554.988 992.099 563.515 986.38C570.551 981.662 573.691 976.73 569.168 968.724C568.457 967.466 568.233 965.877 568.009 964.407C564.04 938.269 558.794 912.243 556.436 885.959C551.526 831.226 547.231 776.403 544.388 721.529C541.319 662.303 540.183 602.977 538.246 543.693C538.076 538.489 538.224 533.275 538.224 527.236C533.487 529.409 529.974 531.282 526.273 532.643C522.785 533.926 521.103 535.966 521.761 540.628ZM528.435 355.075C495.559 318.317 446.881 308.056 403.665 328.775C360.36 349.537 337.324 394.589 345.677 444.174C349.845 418.418 360.135 397.189 378.447 380.381C396.908 363.435 418.952 353.425 443.894 353.281C503.8 352.934 537.864 385.613 552.802 441.601C557.682 409.327 549.564 380.743 528.435 355.075Z" fill="#020202"/>
<path d="M1538.51 584.94C1536.24 584.054 1533.71 583.604 1532.58 582.099C1520.04 565.317 1507.73 548.37 1495.34 531.477C1494.33 530.096 1493.23 528.78 1491.27 526.286C1491.27 559.709 1491.27 591.592 1491.27 623.779C1482.78 623.779 1474.7 623.779 1466.29 623.779C1466.29 579.222 1466.29 534.503 1466.29 489.249C1475.25 489.249 1484.2 489.117 1493.14 489.387C1494.53 489.429 1496.22 491.048 1497.19 492.366C1509.6 509.243 1521.9 526.2 1534.23 543.13C1535.2 544.462 1536.24 545.748 1537.51 547.404C1547.3 533.967 1556.86 520.81 1566.46 507.686C1570.87 501.659 1574.19 493.34 1580.15 490.355C1586.31 487.271 1595.08 489.392 1602.71 489.251C1604.53 489.217 1606.35 489.246 1608.55 489.246C1608.55 534.171 1608.55 578.867 1608.55 623.825C1600.51 623.825 1592.42 623.825 1583.61 623.825C1583.61 591.907 1583.61 559.944 1583.61 527.98C1583.25 527.873 1582.89 527.765 1582.54 527.658C1581.33 529.125 1580.07 530.55 1578.94 532.066C1566.56 548.564 1554.21 565.081 1541.84 581.575C1540.95 582.751 1539.88 583.785 1538.51 584.94Z" fill="#020202"/>
<path d="M1414.8 720.998C1415.86 722.598 1416.92 724.195 1416.93 725.794C1417.02 760.284 1417 794.774 1417 829.264C1417 838.049 1417 846.834 1417 855.809C1408.51 855.809 1400.41 855.809 1391.75 855.809C1391.75 823.569 1391.75 791.417 1391.75 758.049C1390.2 759.801 1389.44 760.548 1388.8 761.39C1376 778.399 1363.21 795.415 1350.43 812.44C1346.09 818.217 1343.71 818.248 1339.56 812.575C1327.09 795.534 1314.62 778.502 1302.14 761.473C1301.49 760.589 1300.76 759.766 1299.28 757.955C1299.28 791.253 1299.28 823.403 1299.28 855.777C1290.66 855.777 1282.58 855.777 1274.24 855.777C1274.24 810.988 1274.24 766.259 1274.24 721C1283.34 721 1292.44 720.836 1301.53 721.164C1303.01 721.217 1304.72 723.222 1305.8 724.702C1318.96 742.667 1332.02 760.703 1345.46 779.211C1352.27 769.881 1358.88 760.855 1365.46 751.813C1372.01 742.809 1378.61 733.839 1385.04 724.744C1386.91 722.094 1388.85 720.742 1392.33 720.897C1399.65 721.223 1406.99 720.996 1414.8 720.998Z" fill="#010101"/>
<path d="M2255.56 742.622C2256.85 748.775 2258.67 754.588 2258.83 760.446C2259.09 769.825 2254.84 777.407 2246.99 782.786C2245.55 783.772 2244.08 784.7 2242.03 786.041C2252.95 790.613 2259.46 798.463 2261.95 809.205C2265.91 826.274 2259.11 846.851 2235.29 852.92C2229.38 854.425 2223.21 855.514 2217.14 855.618C2196.14 855.979 2175.14 855.821 2154.15 855.86C2152.49 855.863 2150.84 855.861 2148.92 855.861C2148.92 810.835 2148.92 766.065 2148.92 720.942C2167.01 720.942 2184.99 720.725 2202.95 721.033C2212.05 721.188 2221.28 721.505 2230.18 723.164C2241.42 725.26 2250.31 731.513 2255.56 742.622ZM2232.64 804.866C2227.26 802.506 2222.02 798.574 2216.47 798.098C2203.27 796.964 2189.92 797.451 2176.62 797.322C2175.71 797.314 2174.79 797.623 2173.88 797.782C2173.88 809.295 2173.88 820.507 2173.88 831.888C2188.59 831.888 2203.03 832.023 2217.47 831.785C2220.7 831.732 2224.05 830.727 2227.12 829.556C2238.65 825.148 2241.14 814.866 2232.64 804.866ZM2202.5 774.965C2208.96 774.627 2215.54 774.944 2221.86 773.803C2232.04 771.963 2236.38 763.202 2232.23 754.374C2229.23 748.002 2223.71 744.607 2217.19 744.366C2202.78 743.833 2188.34 744.2 2173.88 744.2C2173.88 754.504 2173.88 764.557 2173.88 774.965C2183.25 774.965 2192.38 774.965 2202.5 774.965Z" fill="#020202"/>
<path d="M946.838 486.57C986.051 487.233 1006.66 513.497 1012.57 539.385C1019.16 568.314 1008.33 600.359 985.796 615.692C971.574 625.367 955.532 628.091 938.799 626.923C917.921 625.466 900.297 617.41 888.077 599.659C865.043 566.198 875.185 515.255 908.71 495.664C920.368 488.852 933.065 486.424 946.838 486.57ZM900.889 556.505C901.389 583.844 914.839 600.329 939.329 603.616C961.571 606.602 980.883 595.027 986.601 574.313C988.597 567.08 989.477 559.122 988.87 551.657C985.727 513.049 952.856 503.245 927.869 512.767C908.682 520.079 901.778 536.171 900.889 556.505Z" fill="#020202"/>
<path d="M1368.49 661.766C1375.71 662.106 1382.17 660.978 1387.8 656.914C1399.35 648.575 1398.24 631.388 1385.42 625.303C1381.09 623.248 1375.9 622.994 1371.08 622.019C1363.65 620.517 1355.73 620.262 1348.87 617.426C1330.75 609.941 1323.77 594.518 1323.22 576.018C1322.51 552.217 1335.35 533.188 1358.94 527.497C1370.71 524.656 1382.3 525.246 1393.33 531.238C1396.46 527.333 1399.46 523.589 1402.69 519.556C1408.39 523.841 1413.94 528.016 1419.8 532.422C1417.33 535.634 1415.16 538.926 1412.51 541.765C1409.92 544.534 1409.75 546.511 1412.1 549.797C1423.44 565.591 1421.25 591.099 1407.7 603.874C1405.42 606.015 1402.71 607.686 1400.12 609.633C1400.3 609.891 1400.49 610.449 1400.85 610.622C1426.36 622.637 1422.98 659.42 1403.48 673.918C1382.82 689.271 1347.2 685.737 1331.81 666.555C1325.95 659.262 1323.55 650.861 1323.16 641.412C1330.76 641.412 1338.2 641.412 1345.98 641.412C1347.58 654.216 1356.13 659.83 1368.49 661.766ZM1349.7 560.402C1348.65 564.72 1346.91 569.001 1346.68 573.362C1345.9 588.162 1354.84 598.81 1368.79 600.398C1381.95 601.897 1392.85 593.526 1395.59 579.817C1398.19 566.768 1391.81 553.651 1380.66 549.149C1369.18 544.515 1357.16 548.663 1349.7 560.402Z" fill="#020202"/>
<path d="M907.082 844.983C907.082 848.793 907.082 852.105 907.082 855.709C898.809 855.709 890.726 855.709 882.311 855.709C882.311 811.144 882.311 766.427 882.311 721.353C890.251 721.353 898.449 721.353 906.93 721.353C906.93 739.97 906.93 758.57 906.93 777.575C929.238 777.575 951.275 777.575 973.742 777.575C973.742 759.038 973.742 740.311 973.742 721.292C982.236 721.292 990.311 721.292 998.696 721.292C998.696 765.893 998.696 810.611 998.696 855.666C990.823 855.666 982.749 855.666 974.167 855.666C974.167 837.865 974.167 819.819 974.167 801.448C951.756 801.448 929.848 801.448 907.082 801.448C907.082 815.692 907.082 830.089 907.082 844.983Z" fill="black"/>
<path d="M2026.04 503.006C2026.04 517.273 2026.04 531.041 2026.04 545.817C2027.66 544.377 2028.64 543.659 2029.44 542.772C2044.81 525.68 2060.13 508.531 2075.6 491.531C2076.84 490.173 2079.16 489.159 2081.01 489.11C2090.16 488.865 2099.32 488.998 2109.77 488.998C2089.2 511.178 2069.27 532.676 2049.06 554.474C2070.87 577.345 2092.59 600.131 2115.34 623.993C2103.84 623.993 2093.79 624.099 2083.74 623.862C2082.45 623.832 2081.05 622.168 2079.96 621.018C2063.33 603.493 2046.74 585.925 2030.13 568.378C2029.13 567.318 2028.03 566.353 2026.23 564.636C2026.23 584.889 2026.23 604.228 2026.23 623.79C2017.62 623.79 2009.54 623.79 2001.2 623.79C2001.2 578.989 2001.2 534.255 2001.2 489.259C2009.29 489.259 2017.37 489.259 2026.04 489.259C2026.04 493.64 2026.04 498.074 2026.04 503.006Z" fill="#010101"/>
<path d="M1807.24 617.148C1781.36 637.945 1739.46 621.564 1734.01 588.794C1731.37 572.926 1732.39 557.496 1742.44 544.139C1758.56 522.721 1792.57 520.906 1812.66 541.377C1812.66 531.913 1812.66 523.629 1812.66 515.344C1812.66 506.871 1812.66 498.398 1812.66 489.586C1820.5 489.586 1828.02 489.586 1835.78 489.586C1835.78 534.256 1835.78 578.821 1835.78 623.704C1828.78 623.704 1821.71 623.704 1814.28 623.704C1813.71 620.13 1813.11 616.344 1812.33 611.423C1810.28 613.75 1808.9 615.328 1807.24 617.148ZM1762.54 594.894C1770.59 603.969 1780.66 606.379 1791.97 602.998C1803.18 599.648 1809.04 591.445 1810.68 580.082C1812.74 565.732 1803.29 552.308 1789.07 549.275C1774.85 546.241 1761.17 554.136 1757.46 567.778C1754.88 577.268 1756.2 586.236 1762.54 594.894Z" fill="#020202"/>
<path d="M2679.23 779.332C2692.46 756.423 2731.76 750.336 2751.63 772.66C2751.63 755.284 2751.63 738.442 2751.63 721.298C2759.53 721.298 2766.94 721.298 2774.71 721.298C2774.71 765.811 2774.71 810.504 2774.71 855.528C2767.81 855.528 2760.76 855.528 2753.44 855.528C2752.91 851.782 2752.39 848.057 2751.85 844.163C2751.29 844.353 2750.67 844.365 2750.47 844.662C2734.7 867.498 2685.02 861.08 2674.86 826.364C2670.13 810.191 2671.09 794.633 2679.23 779.332ZM2697.13 797.976C2696.91 798.778 2696.67 799.575 2696.47 800.382C2692.67 816.08 2700.53 830.98 2714.76 835.014C2729.23 839.117 2743.96 831.674 2748.59 817.919C2753.5 803.335 2746.64 787.73 2732.95 782.348C2718.6 776.706 2703.75 782.92 2697.13 797.976Z" fill="#020202"/>
<path d="M1892.15 627.005C1867.82 624.49 1853.62 613.874 1848.73 592.957C1844.02 572.818 1845.27 553.112 1862.17 538.443C1876.55 525.969 1893.71 523.458 1911.52 530.16C1916.99 532.216 1921.54 536.717 1926.59 540.156C1926.59 537.129 1926.59 533.416 1926.59 529.349C1934.49 529.349 1941.85 529.349 1949.39 529.349C1949.39 560.858 1949.39 592.241 1949.39 623.823C1942.21 623.823 1935.26 623.823 1927.77 623.823C1927.35 619.888 1926.93 615.903 1926.41 611.014C1917.54 622.795 1906.01 626.997 1892.15 627.005ZM1888.19 549.32C1875.24 554.745 1869.05 564.997 1870.08 579.316C1871.13 593.856 1881.36 604.255 1895.56 605.203C1911.03 606.237 1922.11 597.982 1925.19 583.137C1929.99 559.982 1912.39 543.437 1888.19 549.32Z" fill="#030303"/>
<path d="M1902.58 791.71C1911 756.494 1961.04 748.024 1980.31 773.042C1980.66 768.576 1980.95 764.963 1981.25 761.144C1988.41 761.144 1995.51 761.144 2002.97 761.144C2002.97 792.606 2002.97 824.099 2002.97 855.653C1995.88 855.653 1988.94 855.653 1981.54 855.653C1981.19 851.618 1980.85 847.739 1980.6 844.829C1974.44 848.604 1968.69 853.523 1962.02 855.974C1939.24 864.35 1903.57 853.608 1901.04 815.316C1900.54 807.634 1901.9 799.828 1902.58 791.71ZM1927.88 792.53C1921.65 804.575 1922.83 818.918 1930.8 828.059C1937.92 836.215 1951.01 839.333 1961.97 835.48C1973 831.599 1980.15 820.48 1979.86 807.644C1979.58 794.833 1972.33 784.422 1961.22 780.879C1948.59 776.85 1936.17 780.981 1927.88 792.53Z" fill="#020202"/>
<path d="M1182.54 623.868C1181.55 619.857 1180.99 615.98 1180.44 612.133C1178.06 614.317 1175.82 616.624 1173.33 618.607C1152.19 635.423 1109.07 627.431 1102.03 590.718C1100.03 580.344 1099.94 569.926 1102.88 559.631C1108.35 540.519 1124.76 527.82 1144.58 526.929C1158.56 526.3 1170.9 529.313 1180.58 542.013C1180.58 537.162 1180.58 533.462 1180.58 529.378C1188.51 529.378 1195.89 529.378 1203.51 529.378C1203.51 560.777 1203.51 592.163 1203.51 624.003C1196.55 624.003 1189.76 624.003 1182.54 623.868ZM1153.39 547.887C1137.12 547.999 1126.94 556.267 1124.37 571.465C1121.59 587.929 1131.83 602.979 1147.18 604.998C1164.89 607.325 1178.21 596.99 1179.87 579.648C1181.5 562.594 1170.67 549.157 1153.39 547.887Z" fill="#030303"/>
<path d="M2889 821C2889 832.789 2889 844.077 2889 855.611C2881.55 855.611 2874.47 855.611 2867.14 855.611C2866.66 851.646 2866.19 847.73 2865.63 843.113C2863.64 845.262 2862.08 847.294 2860.18 848.945C2852.17 855.918 2842.64 859.175 2832.18 858.537C2802.56 856.728 2786.09 838.854 2785.91 809.122C2785.81 791.674 2790.67 776.404 2805.97 766.596C2820.18 757.485 2835.79 755.632 2851.57 762.156C2856.69 764.271 2860.94 768.493 2865.74 771.859C2865.98 768.577 2866.23 765.018 2866.51 761.203C2874.06 761.203 2881.28 761.203 2889 761.203C2889 780.977 2889 800.738 2889 821ZM2851.38 782.914C2839.09 776.923 2824.73 779.061 2816.45 788.11C2808.08 797.268 2806.82 813.356 2813.59 824.445C2819.89 834.746 2832.73 839.482 2845.47 836.007C2856.65 832.96 2862.83 825.022 2864.61 814.069C2866.66 801.515 2863.21 790.668 2851.38 782.914Z" fill="#020202"/>
<path d="M2171.63 528.089C2178.55 531.835 2185.08 535.497 2191.7 539.216C2191.87 536.76 2192.11 533.106 2192.37 529.241C2199.9 529.241 2207.15 529.241 2214.63 529.241C2214.63 560.671 2214.63 591.946 2214.63 623.621C2207.55 623.621 2200.33 623.621 2192.89 623.621C2192.48 619.798 2192.05 615.903 2191.51 610.923C2185.9 618.739 2178.99 623.034 2170.65 625.369C2150.05 631.136 2118.23 621.904 2112.88 589.12C2111.19 578.796 2111.23 568.563 2114.2 558.525C2119.54 540.487 2136.22 527.709 2155.34 527.07C2160.62 526.894 2165.93 527.667 2171.63 528.089ZM2188.01 590.321C2188.57 588.936 2189.23 587.583 2189.66 586.161C2196.58 563.585 2178.83 543.351 2156.62 548.475C2143.51 551.498 2135.54 561.492 2135.12 575.428C2134.7 589.439 2142.1 600.413 2154.46 604.087C2168.12 608.15 2180.38 603.337 2188.01 590.321Z" fill="#020202"/>
<path d="M1465.18 856.972C1438.59 849.82 1428.95 825.725 1431.61 801.264C1433.56 783.387 1441.67 769.861 1458.65 762.654C1469.01 758.258 1479.81 757.416 1490.81 759.903C1498.85 761.721 1505.39 765.942 1510.86 773.512C1511.35 768.889 1511.76 765.087 1512.18 761.111C1519.36 761.111 1526.45 761.111 1533.82 761.111C1533.82 792.576 1533.82 823.952 1533.82 855.595C1526.67 855.595 1519.61 855.595 1512.36 855.595C1511.95 851.421 1511.54 847.372 1511.08 842.717C1498.85 858.323 1483.13 860.686 1465.18 856.972ZM1465.5 784.89C1455.94 792.155 1453.82 802.205 1455.05 813.371C1456.42 825.779 1466.03 835.246 1478.58 836.872C1491.92 838.598 1503.26 832.356 1508.09 820.626C1513.12 808.391 1510.1 793.643 1500.95 785.804C1491.73 777.9 1477.89 777.355 1465.5 784.89Z" fill="#020202"/>
<path d="M1070.18 759.688C1078.82 761.615 1085.5 765.854 1091.24 773.729C1091.6 768.975 1091.89 765.294 1092.2 761.26C1099.27 761.26 1106.48 761.26 1113.97 761.26C1113.97 792.603 1113.97 823.977 1113.97 855.607C1106.91 855.607 1099.97 855.607 1092.49 855.607C1092.16 851.768 1091.83 847.886 1091.47 843.762C1090.71 843.97 1090.14 843.946 1089.93 844.21C1077.86 859.126 1061.88 860.951 1044.8 856.72C1027.68 852.478 1017.18 840.845 1013.11 823.785C1010.33 812.128 1010.51 800.334 1014.32 788.876C1020.85 769.255 1039.01 757.823 1061.89 758.681C1064.53 758.78 1067.15 759.257 1070.18 759.688ZM1056.44 836.36C1072.07 839.285 1084.6 832.329 1089.15 818.208C1093.87 803.54 1087.83 787.833 1075.24 782.02C1060.17 775.059 1042.2 782.039 1036.77 796.964C1030.45 814.351 1038.72 831.535 1056.44 836.36Z" fill="#020202"/>
<path d="M1755.99 855.861C1751.88 855.861 1748.25 855.861 1744.39 855.861C1744.01 851.341 1743.67 847.301 1743.29 842.659C1730.23 859.564 1711.12 861.29 1693.78 855.908C1676.88 850.665 1665.6 835.226 1663.83 816.81C1662.39 801.923 1664.07 787.935 1673.36 775.706C1685.53 759.678 1712.31 753.41 1730.23 762.615C1734.82 764.972 1738.69 768.735 1743.15 772.045C1743.47 768.904 1743.86 765.121 1744.27 761.136C1751.37 761.136 1758.47 761.136 1765.87 761.136C1765.87 792.546 1765.87 823.935 1765.87 855.861C1762.71 855.861 1759.6 855.861 1755.99 855.861ZM1722.36 836.136C1737.33 831.875 1745.23 817.835 1741.94 801.309C1739.76 790.32 1731.27 781.753 1720.84 780.015C1707.89 777.854 1696.21 782.485 1690.76 792.662C1684.72 803.959 1684.87 815.575 1692.3 826.098C1699.38 836.11 1709.85 838.481 1722.36 836.136Z" fill="#020202"/>
<path d="M2320.05 757.97C2340.23 758.06 2356.41 764.413 2364.92 783.665C2369.48 793.96 2369.58 804.934 2368.84 816.333C2344.36 816.333 2319.94 816.333 2294.86 816.333C2295.27 823.603 2298.79 828.41 2304.21 832.013C2315.34 839.428 2334.23 838.57 2346.11 830.228C2346.91 829.67 2347.68 829.084 2348.45 828.526C2353.28 833.461 2358.02 838.292 2362.96 843.333C2356.02 850.139 2347.49 854.122 2337.97 856.348C2325.56 859.254 2313.24 858.955 2301.19 854.83C2282.08 848.285 2271.49 832.226 2270.43 808.849C2269.33 784.565 2283.7 765.153 2307.25 759.455C2311.24 758.489 2315.46 758.445 2320.05 757.97ZM2332.8 780.385C2314.22 775.523 2298.87 782.303 2295.6 796.848C2312.37 796.848 2329.13 796.848 2345.91 796.848C2345.11 788.893 2341.57 784.348 2332.8 780.385Z" fill="#020202"/>
<path d="M2018.06 772C2018.06 754.864 2018.06 738.228 2018.06 721.293C2025.86 721.293 2033.43 721.293 2041.4 721.293C2041.4 746.749 2041.4 772.19 2041.4 798.546C2042.84 797.25 2043.71 796.637 2044.37 795.85C2053.37 785.148 2062.26 774.355 2071.41 763.779C2072.69 762.294 2075.15 761.114 2077.11 761.041C2085.22 760.737 2093.35 760.914 2102.68 760.914C2089.02 776.242 2076.04 790.815 2062.98 805.483C2077.91 821.961 2092.71 838.282 2107.5 854.604C2107.29 855.018 2107.07 855.432 2106.86 855.846C2097.97 855.846 2089.08 855.993 2080.2 855.696C2078.79 855.649 2077.25 853.777 2076.1 852.46C2066.47 841.416 2056.93 830.299 2047.34 819.219C2045.77 817.395 2044.1 815.645 2041.62 812.914C2041.62 827.869 2041.62 841.569 2041.62 855.561C2033.67 855.561 2026.25 855.561 2018.06 855.561C2018.06 827.964 2018.06 800.232 2018.06 772Z" fill="#020202"/>
<path d="M2482.94 549C2482.94 528.891 2482.94 509.281 2482.94 489.461C2490.71 489.461 2497.98 489.461 2505.92 489.461C2505.92 514.897 2505.92 540.376 2505.92 565.855C2506.31 566.006 2506.7 566.158 2507.09 566.309C2510.88 561.837 2514.68 557.38 2518.45 552.891C2524.33 545.877 2530.08 538.743 2536.15 531.895C2537.46 530.415 2539.88 529.201 2541.83 529.125C2549.8 528.816 2557.78 528.997 2567.45 528.997C2553.68 544.48 2540.76 559.01 2527.6 573.805C2542.56 590.292 2557.36 606.618 2573.13 624.005C2562.74 624.005 2553.69 624.12 2544.66 623.873C2543.4 623.838 2542 622.187 2540.97 621.014C2530.68 609.226 2520.45 597.377 2510.19 585.557C2509.23 584.448 2508.18 583.417 2506.34 581.472C2506.34 596.215 2506.34 609.88 2506.34 623.779C2498.33 623.779 2490.92 623.779 2482.94 623.779C2482.94 599.013 2482.94 574.256 2482.94 549Z" fill="#020202"/>
<path d="M2651.04 844.035C2627.41 865.551 2589.46 861.668 2573.71 836.243C2557.35 809.838 2566.74 768.573 2602.8 760.171C2625.38 754.91 2647.25 763.909 2658.03 782.365C2669.4 801.826 2666.71 826.357 2651.04 844.035ZM2638.94 796.807C2633.25 785.065 2624.02 779.148 2613.12 780.265C2601.48 781.458 2593 788.841 2590.5 800.806C2589.61 805.108 2589.59 809.775 2590.12 814.161C2591.62 826.531 2601.07 835.413 2612.85 836.128C2626.71 836.971 2636.67 830.032 2640.02 817.135C2641.74 810.535 2641.65 803.989 2638.94 796.807Z" fill="#020202"/>
<path d="M2305.18 609.778C2285.23 584.008 2292.17 546.315 2319.3 532.652C2346 519.21 2384.6 529.861 2391.5 566.243C2397.56 598.201 2377.53 625.825 2344.06 626.092C2328.84 626.213 2315.71 621.64 2305.18 609.778ZM2367.14 566.615C2364.34 558.661 2359.3 552.798 2351.22 549.952C2334.91 544.213 2319.81 554.744 2317.38 573.464C2315.39 588.788 2324.8 602.187 2339.02 604.262C2354.47 606.518 2366.39 597.441 2368.53 581.122C2369.12 576.663 2367.84 571.96 2367.14 566.615Z" fill="#020202"/>
<path d="M1859.09 855.86C1856.8 855.86 1855.01 855.86 1852.83 855.86C1852.83 818.536 1852.83 781.628 1852.83 744.158C1838.43 744.158 1824.39 744.158 1810.1 744.158C1810.1 736.206 1810.1 728.813 1810.1 721.18C1846.88 721.18 1883.59 721.18 1920.53 721.18C1920.53 728.678 1920.53 735.944 1920.53 743.757C1906.46 743.757 1892.42 743.757 1878.09 743.757C1878.09 781.225 1878.09 818.151 1878.09 855.86C1871.73 855.86 1865.66 855.86 1859.09 855.86Z" fill="#020202"/>
<path d="M1249.66 534.605C1271.8 519.501 1308.68 527.925 1311.76 567.043C1313.23 585.732 1312.01 604.632 1312.01 623.729C1304.57 623.729 1297.13 623.729 1289.21 623.729C1289.15 622.546 1289 621.125 1289 619.705C1288.98 604.047 1289.05 588.39 1288.96 572.733C1288.89 561.852 1283.07 553.083 1274.21 550.064C1259.35 545.005 1243.45 554.712 1242.16 570.545C1241.1 583.62 1241.54 596.819 1241.35 609.963C1241.28 614.446 1241.34 618.929 1241.34 623.715C1233.68 623.715 1226.28 623.715 1218.56 623.715C1218.56 592.408 1218.56 561.019 1218.56 529.296C1225.25 529.296 1231.99 529.296 1239.05 529.296C1239.59 533.079 1240.14 536.952 1240.77 541.36C1243.93 538.969 1246.65 536.907 1249.66 534.605Z" fill="#020202"/>
<path d="M2544.28 772.767C2551.77 781.932 2554.54 792.505 2554.8 803.596C2555.21 820.748 2554.91 837.917 2554.91 855.469C2547.24 855.469 2539.68 855.469 2531.53 855.469C2531.53 851.793 2531.56 848.001 2531.53 844.21C2531.41 830.219 2531.76 816.2 2530.98 802.245C2530.24 788.898 2522.25 781.364 2509.58 780.411C2498.79 779.601 2488.2 787.361 2485.19 798.585C2484.38 801.587 2484.08 804.804 2484.05 807.926C2483.94 823.728 2484 839.53 2484 855.595C2476.27 855.595 2468.86 855.595 2461.19 855.595C2461.19 824.09 2461.19 792.686 2461.19 761.02C2467.97 761.02 2474.7 761.02 2481.58 761.02C2482.12 764.917 2482.64 768.65 2483.29 773.351C2494.74 762.538 2507.56 756.912 2522.99 760.069C2531.37 761.783 2538.46 765.927 2544.28 772.767Z" fill="#020202"/>
<path d="M1650.24 581.427C1650.71 583.984 1651 586.14 1651.61 588.197C1654.78 598.846 1662.86 604.647 1673.9 604.319C1685.15 603.986 1694.4 596.354 1696.9 585.094C1697.58 582.04 1697.88 578.846 1697.9 575.713C1698 560.381 1697.94 545.049 1697.94 529.357C1705.54 529.357 1713.07 529.357 1720.81 529.357C1720.81 560.808 1720.81 592.221 1720.81 623.859C1713.9 623.859 1707.15 623.859 1700.24 623.859C1699.69 619.931 1699.16 616.082 1698.53 611.616C1696.15 613.573 1694.17 615.231 1692.16 616.85C1671.91 633.139 1632.46 628.674 1628.28 589.791C1626.15 569.914 1627.91 549.619 1627.91 529.253C1634.68 529.253 1642.09 529.253 1650.2 529.253C1650.2 546.472 1650.2 563.725 1650.24 581.427Z" fill="#010101"/>
<path d="M1174.45 835.666C1177.21 834.862 1179.55 834.179 1182.32 833.372C1184.43 839.854 1186.5 846.19 1188.7 852.9C1175.99 857.557 1163.59 859.236 1151.25 853.337C1141.5 848.677 1136.72 840.087 1136.09 829.787C1135.24 815.68 1135.47 801.508 1135.25 787.364C1135.22 785.401 1135.24 783.438 1135.24 781.043C1129.29 781.043 1123.7 781.043 1117.95 781.043C1117.95 774.32 1117.95 768.039 1117.95 761.142C1123.51 761.142 1129.2 761.142 1135.24 761.142C1135.24 753.742 1135.11 746.948 1135.35 740.166C1135.4 738.783 1136.65 736.393 1137.6 736.258C1144.46 735.285 1151.39 734.773 1158.75 734.072C1158.75 743.086 1158.75 751.836 1158.75 760.908C1167.6 760.908 1176.03 760.908 1184.73 760.908C1184.73 767.641 1184.73 774.046 1184.73 780.878C1176.21 780.878 1167.63 780.878 1158.34 780.878C1158.34 783.843 1158.34 786.423 1158.34 789.003C1158.34 799.661 1158.27 810.321 1158.36 820.979C1158.45 832.078 1163.07 836.378 1174.45 835.666Z" fill="#030303"/>
<path d="M2284.55 529.52C2284.91 536.121 2284.91 542.407 2284.91 549.098C2276.34 549.098 2267.93 549.098 2258.94 549.098C2258.94 558.256 2258.94 567.016 2258.94 575.777C2258.94 580.605 2258.91 585.434 2258.95 590.262C2259.05 601.192 2265.65 606.263 2276.35 603.609C2278.26 603.134 2280.12 602.404 2282.55 601.611C2284.69 607.994 2286.79 614.295 2289.09 621.169C2276.33 625.895 2263.56 627.645 2251.11 621.38C2239.81 615.694 2236.11 605.122 2235.94 593.155C2235.75 580.338 2235.85 567.516 2235.83 554.697C2235.82 553.067 2235.83 551.437 2235.83 549.432C2229.79 549.432 2224.2 549.432 2218.28 549.432C2218.28 542.639 2218.28 536.223 2218.28 529.266C2223.86 529.266 2229.59 529.266 2235.69 529.266C2235.69 520.982 2235.69 513.221 2235.69 504.865C2243.51 504.007 2251.03 503.182 2258.97 502.311C2258.97 511.177 2258.97 519.939 2258.97 529.206C2267.65 529.206 2275.92 529.206 2284.55 529.52Z" fill="#020202"/>
<path d="M2415.32 762.184C2428.94 755.503 2446.1 757.611 2457.01 767.355C2453.61 773.901 2450.15 780.555 2446.57 787.452C2439.78 782.064 2432.49 780.519 2424.32 781.917C2413.65 783.742 2406.23 791.487 2406.06 802.261C2405.81 818.082 2405.91 833.908 2405.87 849.732C2405.87 851.546 2405.87 853.36 2405.87 855.519C2398.04 855.519 2390.5 855.519 2382.65 855.519C2382.65 824.077 2382.65 792.689 2382.65 761.103C2389.8 761.103 2396.75 761.103 2403.88 761.103C2404.49 764.363 2405.08 767.547 2405.68 770.757C2408.95 767.819 2411.97 765.097 2415.32 762.184Z" fill="#050505"/>
<path d="M1618.07 779.07C1616.54 782.017 1615.13 784.61 1613.62 787.369C1607.02 782.206 1599.92 780.506 1591.88 781.873C1580.22 783.857 1573.07 791.86 1573.02 803.815C1572.95 819.314 1573 834.814 1573 850.313C1573 851.961 1573 853.609 1573 855.557C1565.33 855.557 1557.9 855.557 1550.07 855.557C1550.07 824.316 1550.07 792.941 1550.07 761.239C1556.81 761.239 1563.71 761.239 1571 761.239C1571.59 764.292 1572.2 767.486 1573.03 771.752C1579.55 761.321 1588.98 758.046 1599.72 758.288C1608.65 758.488 1617.09 760.705 1624.16 767.335C1622.15 771.165 1620.16 774.941 1618.07 779.07Z" fill="#020202"/>
<path d="M1051.23 538.525C1063.28 523.941 1088.25 522.618 1101.29 535.88C1097.93 542.332 1094.52 548.876 1090.94 555.757C1085.52 551.3 1079.7 549.667 1073.16 549.851C1058.97 550.249 1050.24 558.721 1050.09 573.007C1049.92 589.806 1050.05 606.608 1050.05 623.713C1042.45 623.713 1035.04 623.713 1027.27 623.713C1027.27 592.4 1027.27 560.904 1027.27 529.202C1034.09 529.202 1040.86 529.202 1047.84 529.202C1048.86 532.329 1049.91 535.558 1051.23 538.525Z" fill="#010101"/>
<path d="M2404.06 600C2404.06 562.903 2404.06 526.307 2404.06 489.479C2411.82 489.479 2419.09 489.479 2426.77 489.479C2426.77 534.142 2426.77 578.821 2426.77 623.761C2419.49 623.761 2412.07 623.761 2404.06 623.761C2404.06 616.028 2404.06 608.264 2404.06 600Z" fill="#020202"/>
<path d="M1628.67 768.175C1628.67 765.409 1628.67 763.119 1628.67 760.604C1636.57 760.604 1643.98 760.604 1651.7 760.604C1651.7 792.224 1651.7 823.748 1651.7 855.567C1644.19 855.567 1636.65 855.567 1628.67 855.567C1628.67 826.51 1628.67 797.58 1628.67 768.175Z" fill="#020202"/>
<path d="M2464.76 528.873C2465.79 529.875 2466.8 530.867 2466.8 531.863C2466.89 562.333 2466.87 592.804 2466.87 623.653C2459.17 623.653 2451.6 623.653 2443.69 623.653C2443.69 592.29 2443.69 560.763 2443.69 528.866C2450.68 528.866 2457.48 528.866 2464.76 528.873Z" fill="#070707"/>
<path d="M1197.96 842.988C1197.96 815.365 1197.96 788.239 1197.96 760.743C1205.68 760.743 1213.19 760.743 1220.9 760.743C1220.9 792.312 1220.9 823.739 1220.9 855.513C1213.52 855.513 1206.12 855.513 1197.96 855.513C1197.96 851.637 1197.96 847.562 1197.96 842.988Z" fill="#020202"/>
<path d="M1626.71 731.601C1628.29 724.422 1632.74 720.54 1639.53 720.094C1645.66 719.691 1651.29 723.553 1653.21 729.476C1655.22 735.68 1653.17 741.942 1648.06 745.246C1643.17 748.404 1635.13 747.949 1630.82 744.161C1627.14 740.926 1626.09 736.713 1626.71 731.601Z" fill="#030303"/>
<path d="M1202.29 722.085C1212.27 716.723 1223.81 723.633 1223.21 733.777C1222.83 740.33 1219.61 745.39 1213.89 746.912C1207.4 748.64 1200.78 746.277 1197.68 741.131C1194.54 735.928 1195.37 728.418 1199.59 724.081C1200.28 723.376 1201.16 722.853 1202.29 722.085Z" fill="#030303"/>
<path d="M2446.26 512.869C2441.09 507.42 2439.98 501.57 2442.75 495.814C2445.23 490.653 2450.13 488.226 2456.9 488.81C2464.55 489.47 2469.93 496.109 2468.93 503.661C2467.91 511.442 2460.83 517.083 2453.45 515.712C2451.08 515.27 2448.86 513.986 2446.26 512.869Z" fill="#030303"/>
<path d="M495.38 607.035C496.334 692.826 496.541 778.14 498.586 863.409C499.482 900.809 503.664 938.163 507.303 975.446C508.716 989.926 512.627 1004.18 515.692 1018.47C516.248 1021.06 515.814 1022.33 513.775 1023.8C498.776 1034.59 483.832 1045.45 468.907 1056.34C458.197 1064.15 446.53 1066.97 434.935 1059.61C417.277 1048.39 400.289 1036.12 383.137 1024.39C391.108 1002.73 393.825 980.789 395.957 958.814C407.011 844.858 406.166 730.539 406 616.247C405.972 596.754 405.606 577.262 405.398 557.769C405.388 556.844 405.396 555.919 405.396 553.78C409.24 556.892 412.424 559.197 415.293 561.846C423.126 569.077 430.861 576.417 438.57 583.782C447.098 591.929 452.692 591.82 460.43 583.213C471.001 571.457 482.509 560.75 495.381 551.42C495.381 570.045 495.381 588.293 495.38 607.035Z" fill="#FEFEFE"/>
<path d="M145.739 628.739C175.713 530.147 277.379 497.229 338.373 519.404C338.676 539.539 336.058 559.198 330.614 578.474C312.428 642.865 272.49 689.9 215.152 722.977C196.57 733.697 176.868 741.984 156.626 749.022C153.838 749.991 151.103 751.113 147.862 752.348C134.901 711.558 132.989 670.504 145.739 628.739Z" fill="#12CAD5"/>
<path d="M586.084 620.791C578.187 604.838 571.977 588.589 568.734 571.501C565.51 554.504 563.58 537.262 560.953 519.24C568.718 517.732 575.52 515.963 582.435 515.148C607.476 512.194 632.034 514.124 655.674 523.567C698.578 540.706 727.539 571.952 745.944 613.577C754.216 632.285 758.692 651.948 760.263 672.467C762.323 699.377 757.918 725.229 750.031 750.728C749.896 751.164 749.58 751.544 749.108 752.374C678.985 728.165 620.62 689.6 586.084 620.791Z" fill="#12CAD6"/>
<path d="M330.614 751.542C329.7 765.457 329.013 778.92 327.976 792.356C326.172 815.728 324.426 839.111 322.139 862.439C320.147 882.758 317.778 903.055 314.933 923.271C313.049 936.657 310.03 949.883 307.269 964.51C275.192 937.218 246.647 908.672 221.036 877.292C195.54 846.051 172.487 813.166 156.262 775.266C193.347 763.1 228.047 746.57 259.246 723.194C290.553 699.736 315.879 671.08 334.285 636.393C334.703 636.495 335.121 636.597 335.539 636.7C333.921 674.826 332.302 712.953 330.614 751.542Z" fill="#F9173F"/>
<path d="M572.084 772.786C570.469 740.567 568.823 708.825 567.297 677.076C566.73 665.269 566.44 653.448 566.047 641.633C566.017 640.727 566.177 639.815 566.822 638.512C605.186 708.929 666.462 750.012 740.713 775.52C729.789 801.637 715.476 825.445 699.275 848.17C674.871 882.404 608.995 952.307 592.784 960.9C590.14 945.494 587.033 930.433 585.066 915.225C582.042 891.845 579.626 868.38 577.292 844.918C575.877 830.691 575.078 816.401 574.05 802.137C573.357 792.514 572.748 782.886 572.084 772.786Z" fill="#F9173F"/>
<path d="M358.114 263.45C364.052 251.915 374.631 247.142 385.51 242.841C391.663 240.408 397.912 238.215 404.358 235.825C405.074 237.503 405.595 238.864 406.223 240.173C408.781 245.502 412.714 247.715 418.665 247.222C419.329 247.167 419.993 247.107 420.657 247.062C432.312 246.263 432.312 246.263 437.113 257.054C440.368 264.37 445.938 267.118 453.113 264.964C457.362 263.689 459.33 260.399 460.971 256.586C465.348 246.416 465.482 245.92 476.196 247.185C485.245 248.253 490.624 244.991 493.106 236.222C507.578 240.018 521.048 245.507 533.257 253.553C536.945 255.984 539.195 260.596 542.202 264.332C540.049 267.268 538.139 269.974 536.123 272.599C533.411 276.128 533.036 279.84 535.092 283.765C537.188 287.765 540.567 289.258 545.007 288.942C555.399 288.204 555.508 288.201 559.86 297.535C561.622 301.314 564.295 303.129 568.361 303.251C572.57 303.378 575.828 301.939 577.681 297.959C578.093 297.074 578.553 296.213 579.525 294.277C583.974 301.221 588.237 307.403 591.99 313.882C594.979 319.041 597.454 324.512 599.946 329.941C601.487 333.297 603.247 336.322 599.723 340.267C596.756 343.59 599.606 347.429 602.1 350.484C603.687 352.428 605.396 354.074 602.955 356.853C600.149 360.048 596.376 363.993 599.888 368.181C602.134 370.861 606.554 371.72 611.67 374.207C611.967 379.657 612.878 387.225 612.705 394.768C611.956 427.388 602.851 457.516 585.119 485.004C583.077 488.171 580.96 489.952 576.904 490.236C571.344 490.626 565.86 492.113 559.064 493.365C577.857 461.104 584.452 427.788 575.196 392.208C566.007 356.886 545.614 329.726 514.313 311.085C467.309 283.093 405.579 289.232 364.027 324.407C327.297 355.5 298.586 424.895 336.966 491.656C329.983 490.435 323.17 489.373 316.433 487.956C315.078 487.671 313.668 486.259 312.854 484.998C297.354 461.012 287.717 434.943 286.014 406.306C285.414 396.213 285.986 386.048 286.088 375.917C286.101 374.639 286.514 373.365 286.752 372.031C289.027 372.031 291.154 372.509 292.921 371.915C295.384 371.087 298.428 369.978 299.631 368.013C300.681 366.298 299.703 363.202 299.267 360.78C299.081 359.745 298.124 358.736 297.295 357.949C294.543 355.34 295.12 353.067 297.281 350.27C302.352 343.703 302.191 343.639 296.807 336.882C296.255 336.189 296.118 334.691 296.458 333.831C302.098 319.541 309.544 306.275 319.423 293.71C320.3 295.267 321.121 296.398 321.613 297.658C323.245 301.841 326.491 303.254 330.679 303.257C334.937 303.26 337.83 301.433 339.656 297.461C344.007 287.996 344.1 287.952 354.088 288.942C358.587 289.389 361.892 287.764 364.17 284.006C366.482 280.191 366.178 276.569 363.48 272.897C361.382 270.041 359.764 266.833 358.114 263.45Z" fill="#F6B301"/>
<path d="M397.469 397.439C446.334 358.091 514.581 382.605 526.353 443.799C531.419 470.132 523.174 493.267 504.748 512.353C497.476 519.887 486.99 522.488 477.023 525.162C450.306 532.33 424.581 529.351 400.107 516.694C395.53 514.328 391.19 510.74 387.908 506.755C360.954 474.027 365.144 426.291 397.469 397.439Z" fill="#FEFEFE"/>
<path d="M360.994 622.991C361.835 591.542 362.671 560.589 363.535 528.641C368.947 531.493 373.912 533.936 378.65 536.761C379.529 537.285 379.822 539.341 379.832 540.695C380.221 589.673 380.906 638.654 380.772 687.631C380.647 733.44 379.974 779.254 378.937 825.053C377.813 874.686 375.035 924.246 368.818 973.537C367.367 985.043 364.669 996.391 362.356 1008.82C350.682 999.629 339.944 991.243 329.342 982.688C328.509 982.016 328.003 979.948 328.382 978.906C337.409 954.098 339.84 928.018 342.956 902.13C353.297 816.223 357.087 729.862 360.224 643.465C360.466 636.806 360.734 630.148 360.994 622.991Z" fill="#FCFCFC"/>
<path d="M521.767 540.167C521.103 535.966 522.786 533.926 526.273 532.643C529.974 531.282 533.487 529.409 538.224 527.236C538.224 533.275 538.076 538.489 538.246 543.693C540.183 602.977 541.319 662.303 544.388 721.529C547.231 776.403 551.526 831.226 556.436 885.959C558.794 912.243 564.04 938.269 568.01 964.407C568.233 965.877 568.457 967.466 569.168 968.724C573.691 976.73 570.551 981.662 563.515 986.38C554.988 992.099 547.199 998.919 537.891 1006.2C535.8 993.623 533.389 982.174 532.054 970.602C522.448 887.363 521.501 803.71 520.97 720.078C520.59 660.265 521.453 600.445 521.767 540.167Z" fill="#FDFDFD"/>
<path d="M528.669 355.342C549.564 380.743 557.682 409.327 552.802 441.601C537.864 385.613 503.799 352.934 443.894 353.281C418.952 353.425 396.908 363.435 378.447 380.381C360.135 397.189 349.845 418.418 345.677 444.174C337.324 394.589 360.36 349.537 403.665 328.775C446.881 308.056 495.559 318.317 528.669 355.342Z" fill="#FCFCFC"/>
</g>
<defs>
<clipPath id="clip0_3_1013">
<rect width="3006" height="1275" fill="white"/>
</clipPath>
</defs>
</svg>
