<svg width="66" height="15" viewBox="0 0 66 15" fill="none" xmlns="http://www.w3.org/2000/svg">
<rect y="12.2031" width="2.8" height="5.6" rx="1.4" transform="rotate(-90 0 12.2031)" fill="#CCE5FF"/>
<rect x="5.59961" y="12.2031" width="11.2" height="2.8" rx="1.4" transform="rotate(-90 5.59961 12.2031)" fill="#004C99"/>
<path d="M5.60078 8.00156C5.60078 8.77476 4.97398 9.40156 4.20078 9.40156C3.42758 9.40156 2.80078 8.77476 2.80078 8.00156C2.80078 7.22836 3.42758 6.60156 4.20078 6.60156C4.97398 6.60156 5.60078 7.22836 5.60078 8.00156ZM3.85061 8.00156C3.85061 8.19496 4.00739 8.35173 4.20078 8.35173C4.39418 8.35173 4.55095 8.19496 4.55095 8.00156C4.55095 7.80817 4.39418 7.65139 4.20078 7.65139C4.00739 7.65139 3.85061 7.80817 3.85061 8.00156Z" fill="#3399FF"/>
<path d="M5.60078 5.20469C5.60078 5.97789 4.97398 6.60469 4.20078 6.60469C3.42758 6.60469 2.80078 5.97789 2.80078 5.20469C2.80078 4.43149 3.42758 3.80469 4.20078 3.80469C4.97398 3.80469 5.60078 4.43149 5.60078 5.20469ZM3.85061 5.20469C3.85061 5.39808 4.00739 5.55486 4.20078 5.55486C4.39418 5.55486 4.55095 5.39808 4.55095 5.20469C4.55095 5.01129 4.39418 4.85452 4.20078 4.85452C4.00739 4.85452 3.85061 5.01129 3.85061 5.20469Z" fill="#3399FF"/>
<path d="M2.8 8.00156C2.8 8.77476 2.1732 9.40156 1.4 9.40156C0.626801 9.40156 0 8.77476 0 8.00156C0 7.22836 0.626801 6.60156 1.4 6.60156C2.1732 6.60156 2.8 7.22836 2.8 8.00156ZM1.04983 8.00156C1.04983 8.19496 1.20661 8.35173 1.4 8.35173C1.59339 8.35173 1.75017 8.19496 1.75017 8.00156C1.75017 7.80817 1.59339 7.65139 1.4 7.65139C1.20661 7.65139 1.04983 7.80817 1.04983 8.00156Z" fill="#3399FF"/>
<path d="M13.026 12.1434C12.4685 12.1434 11.9429 12.0438 11.4491 11.8447C10.9632 11.6376 10.5411 11.3469 10.1827 10.9726C9.83228 10.5983 9.56946 10.1562 9.39424 9.64651L10.9115 8.96555C11.1345 9.45138 11.4411 9.83367 11.8314 10.1124C12.2296 10.3912 12.6676 10.5306 13.1455 10.5306C13.4004 10.5306 13.6194 10.4907 13.8026 10.4111C13.9857 10.3314 14.1291 10.2239 14.2326 10.0885C14.3362 9.94517 14.3879 9.77792 14.3879 9.58677C14.3879 9.3797 14.3242 9.20448 14.1968 9.06112C14.0694 8.9098 13.8703 8.79033 13.5995 8.70272L11.8553 8.12928C11.1464 7.89831 10.6128 7.57177 10.2544 7.14965C9.896 6.71957 9.7168 6.20587 9.7168 5.60853C9.7168 5.08288 9.84423 4.62094 10.0991 4.22272C10.3619 3.8245 10.7243 3.51388 11.1862 3.29088C11.6561 3.06788 12.1937 2.95637 12.799 2.95637C13.3327 2.95637 13.8265 3.04796 14.2804 3.23115C14.7344 3.41433 15.1247 3.67317 15.4512 4.00768C15.7857 4.34219 16.0366 4.74439 16.2038 5.21429L14.6986 5.89525C14.5313 5.4811 14.2804 5.15854 13.9459 4.92757C13.6114 4.68864 13.2291 4.56917 12.799 4.56917C12.5521 4.56917 12.3331 4.609 12.142 4.68864C11.9508 4.76828 11.8035 4.88377 11.6999 5.03509C11.5964 5.17845 11.5446 5.34571 11.5446 5.53685C11.5446 5.74393 11.6123 5.92711 11.7477 6.0864C11.8831 6.23772 12.0862 6.35719 12.357 6.4448L14.0654 6.99435C14.7822 7.22532 15.3158 7.54788 15.6662 7.96203C16.0246 8.37618 16.2038 8.88192 16.2038 9.47925C16.2038 9.99694 16.0684 10.4589 15.7977 10.8651C15.5269 11.2633 15.1525 11.5779 14.6747 11.8089C14.2048 12.0319 13.6552 12.1434 13.026 12.1434ZM19.4111 12.1434C18.9412 12.1434 18.535 12.0677 18.1925 11.9164C17.85 11.765 17.5872 11.55 17.404 11.2713C17.2208 10.9845 17.1292 10.646 17.1292 10.2558C17.1292 9.88942 17.2129 9.56686 17.3801 9.28811C17.5474 9.00139 17.8022 8.76245 18.1447 8.57131C18.4951 8.38016 18.9292 8.24476 19.4469 8.16512L21.442 7.84256V9.15669L19.7695 9.45536C19.5146 9.50315 19.3195 9.58677 19.1841 9.70624C19.0487 9.81774 18.981 9.98101 18.981 10.1961C18.981 10.3952 19.0566 10.5505 19.208 10.662C19.3593 10.7735 19.5464 10.8292 19.7695 10.8292C20.0641 10.8292 20.323 10.7655 20.546 10.6381C20.769 10.5106 20.9402 10.3394 21.0597 10.1244C21.1871 9.90137 21.2508 9.65845 21.2508 9.39563V7.6992C21.2508 7.4523 21.1513 7.24523 20.9522 7.07797C20.761 6.91072 20.4982 6.82709 20.1637 6.82709C19.8451 6.82709 19.5624 6.9147 19.3155 7.08992C19.0765 7.26514 18.9013 7.49611 18.7898 7.78283L17.3562 7.10187C17.4837 6.7355 17.6868 6.42091 17.9655 6.15808C18.2443 5.89525 18.5788 5.69216 18.969 5.5488C19.3593 5.40544 19.7854 5.33376 20.2473 5.33376C20.7969 5.33376 21.2827 5.43332 21.7048 5.63243C22.1269 5.83154 22.4535 6.11029 22.6844 6.46869C22.9234 6.81913 23.0428 7.2293 23.0428 7.6992V12H21.3703V10.9487L21.7765 10.877C21.5853 11.1637 21.3743 11.4027 21.1433 11.5938C20.9124 11.777 20.6535 11.9124 20.3668 12C20.0801 12.0956 19.7615 12.1434 19.4111 12.1434ZM27.3824 12.0717C26.5939 12.0717 25.9806 11.8606 25.5426 11.4385C25.1125 11.0084 24.8975 10.4111 24.8975 9.64651V7.03019H23.7984V5.47712H23.8581C24.1926 5.47712 24.4475 5.39349 24.6227 5.22624C24.8059 5.05899 24.8975 4.80811 24.8975 4.4736V3.99573H26.6895V5.47712H28.2186V7.03019H26.6895V9.52704C26.6895 9.75004 26.7293 9.93721 26.8089 10.0885C26.8886 10.2319 27.012 10.3394 27.1793 10.4111C27.3465 10.4828 27.5536 10.5186 27.8005 10.5186C27.8563 10.5186 27.92 10.5146 27.9917 10.5067C28.0633 10.4987 28.139 10.4907 28.2186 10.4828V12C28.0992 12.0159 27.9638 12.0319 27.8125 12.0478C27.6611 12.0637 27.5178 12.0717 27.3824 12.0717ZM31.6103 12.1434C31.0846 12.1434 30.6346 12.0319 30.2603 11.8089C29.8939 11.5779 29.6152 11.2593 29.424 10.8531C29.2329 10.4469 29.1373 9.97305 29.1373 9.43147V5.47712H30.9293V9.28811C30.9293 9.535 30.9771 9.75403 31.0727 9.94517C31.1762 10.1284 31.3196 10.2717 31.5028 10.3753C31.6859 10.4788 31.893 10.5306 32.124 10.5306C32.3629 10.5306 32.57 10.4788 32.7452 10.3753C32.9284 10.2717 33.0678 10.1284 33.1633 9.94517C33.2669 9.75403 33.3187 9.535 33.3187 9.28811V5.47712H35.1107V12H33.4381V10.7098L33.5337 10.9965C33.3824 11.3867 33.1355 11.6774 32.793 11.8686C32.4585 12.0518 32.0643 12.1434 31.6103 12.1434ZM38.6985 12V3.09973H41.6015C42.5652 3.09973 43.4015 3.29088 44.1103 3.67317C44.8192 4.05547 45.3687 4.58112 45.759 5.25013C46.1492 5.91915 46.3443 6.68373 46.3443 7.54389C46.3443 8.40405 46.1492 9.17262 45.759 9.8496C45.3687 10.5186 44.8192 11.0443 44.1103 11.4266C43.4015 11.8089 42.5652 12 41.6015 12H38.6985ZM40.5502 10.3872H41.6493C42.2307 10.3872 42.7325 10.2717 43.1546 10.0407C43.5767 9.80181 43.9032 9.47129 44.1342 9.04917C44.3731 8.61909 44.4926 8.11733 44.4926 7.54389C44.4926 6.96249 44.3731 6.46073 44.1342 6.03861C43.9032 5.6165 43.5767 5.28996 43.1546 5.05899C42.7325 4.82802 42.2307 4.71253 41.6493 4.71253H40.5502V10.3872ZM49.4177 12.1434C48.9478 12.1434 48.5416 12.0677 48.1992 11.9164C47.8567 11.765 47.5939 11.55 47.4107 11.2713C47.2275 10.9845 47.1359 10.646 47.1359 10.2558C47.1359 9.88942 47.2195 9.56686 47.3868 9.28811C47.554 9.00139 47.8089 8.76245 48.1514 8.57131C48.5018 8.38016 48.9359 8.24476 49.4536 8.16512L51.4487 7.84256V9.15669L49.7761 9.45536C49.5213 9.50315 49.3261 9.58677 49.1907 9.70624C49.0553 9.81774 48.9876 9.98101 48.9876 10.1961C48.9876 10.3952 49.0633 10.5505 49.2146 10.662C49.366 10.7735 49.5531 10.8292 49.7761 10.8292C50.0708 10.8292 50.3297 10.7655 50.5527 10.6381C50.7757 10.5106 50.9469 10.3394 51.0664 10.1244C51.1938 9.90137 51.2575 9.65845 51.2575 9.39563V7.6992C51.2575 7.4523 51.158 7.24523 50.9588 7.07797C50.7677 6.91072 50.5049 6.82709 50.1704 6.82709C49.8518 6.82709 49.569 6.9147 49.3221 7.08992C49.0832 7.26514 48.908 7.49611 48.7965 7.78283L47.3629 7.10187C47.4903 6.7355 47.6934 6.42091 47.9722 6.15808C48.2509 5.89525 48.5854 5.69216 48.9757 5.5488C49.366 5.40544 49.7921 5.33376 50.254 5.33376C50.8035 5.33376 51.2894 5.43332 51.7115 5.63243C52.1336 5.83154 52.4601 6.11029 52.6911 6.46869C52.93 6.81913 53.0495 7.2293 53.0495 7.6992V12H51.377V10.9487L51.7832 10.877C51.592 11.1637 51.381 11.4027 51.15 11.5938C50.919 11.777 50.6602 11.9124 50.3735 12C50.0867 12.0956 49.7682 12.1434 49.4177 12.1434ZM57.389 12.0717C56.6006 12.0717 55.9873 11.8606 55.5493 11.4385C55.1192 11.0084 54.9041 10.4111 54.9041 9.64651V7.03019H53.805V5.47712H53.8648C54.1993 5.47712 54.4541 5.39349 54.6294 5.22624C54.8125 5.05899 54.9041 4.80811 54.9041 4.4736V3.99573H56.6961V5.47712H58.2253V7.03019H56.6961V9.52704C56.6961 9.75004 56.736 9.93721 56.8156 10.0885C56.8952 10.2319 57.0187 10.3394 57.1859 10.4111C57.3532 10.4828 57.5603 10.5186 57.8072 10.5186C57.8629 10.5186 57.9266 10.5146 57.9983 10.5067C58.07 10.4987 58.1457 10.4907 58.2253 10.4828V12C58.1058 12.0159 57.9704 12.0319 57.8191 12.0478C57.6678 12.0637 57.5244 12.0717 57.389 12.0717ZM61.2944 12.1434C60.8245 12.1434 60.4183 12.0677 60.0758 11.9164C59.7334 11.765 59.4705 11.55 59.2873 11.2713C59.1042 10.9845 59.0126 10.646 59.0126 10.2558C59.0126 9.88942 59.0962 9.56686 59.2635 9.28811C59.4307 9.00139 59.6856 8.76245 60.028 8.57131C60.3785 8.38016 60.8125 8.24476 61.3302 8.16512L63.3253 7.84256V9.15669L61.6528 9.45536C61.3979 9.50315 61.2028 9.58677 61.0674 9.70624C60.932 9.81774 60.8643 9.98101 60.8643 10.1961C60.8643 10.3952 60.94 10.5505 61.0913 10.662C61.2426 10.7735 61.4298 10.8292 61.6528 10.8292C61.9475 10.8292 62.2063 10.7655 62.4293 10.6381C62.6523 10.5106 62.8236 10.3394 62.943 10.1244C63.0705 9.90137 63.1342 9.65845 63.1342 9.39563V7.6992C63.1342 7.4523 63.0346 7.24523 62.8355 7.07797C62.6444 6.91072 62.3815 6.82709 62.047 6.82709C61.7284 6.82709 61.4457 6.9147 61.1988 7.08992C60.9599 7.26514 60.7847 7.49611 60.6732 7.78283L59.2396 7.10187C59.367 6.7355 59.5701 6.42091 59.8488 6.15808C60.1276 5.89525 60.4621 5.69216 60.8524 5.5488C61.2426 5.40544 61.6687 5.33376 62.1307 5.33376C62.6802 5.33376 63.166 5.43332 63.5881 5.63243C64.0103 5.83154 64.3368 6.11029 64.5678 6.46869C64.8067 6.81913 64.9262 7.2293 64.9262 7.6992V12H63.2536V10.9487L63.6598 10.877C63.4687 11.1637 63.2576 11.4027 63.0267 11.5938C62.7957 11.777 62.5368 11.9124 62.2501 12C61.9634 12.0956 61.6448 12.1434 61.2944 12.1434Z" fill="#3399FF"/>
</svg>
