<svg width="42" height="13" viewBox="0 0 42 13" fill="none" xmlns="http://www.w3.org/2000/svg">
<path d="M10.2653 5.04506C10.0901 5.04506 9.9249 5.01377 9.76971 4.95119C9.61702 4.88611 9.48435 4.79474 9.37171 4.6771C9.26158 4.55945 9.17897 4.42053 9.1239 4.26033L9.60075 4.04631C9.67083 4.199 9.7672 4.31915 9.88986 4.40676C10.015 4.49437 10.1527 4.53818 10.3029 4.53818C10.383 4.53818 10.4518 4.52566 10.5094 4.50063C10.5669 4.4756 10.612 4.44181 10.6445 4.39925C10.6771 4.3542 10.6934 4.30163 10.6934 4.24156C10.6934 4.17648 10.6733 4.12141 10.6333 4.07635C10.5932 4.02879 10.5307 3.99125 10.4455 3.96371L9.89737 3.78349C9.67459 3.7109 9.50688 3.60827 9.39424 3.47561C9.2816 3.34044 9.22528 3.17899 9.22528 2.99125C9.22528 2.82605 9.26533 2.68087 9.34543 2.55571C9.42803 2.43056 9.54192 2.33293 9.6871 2.26285C9.83479 2.19276 10.0037 2.15772 10.194 2.15772C10.3617 2.15772 10.5169 2.1865 10.6596 2.24407C10.8022 2.30165 10.9249 2.383 11.0275 2.48813C11.1327 2.59326 11.2115 2.71967 11.2641 2.86735L10.791 3.08137C10.7384 2.9512 10.6596 2.84983 10.5544 2.77724C10.4493 2.70214 10.3292 2.6646 10.194 2.6646C10.1164 2.6646 10.0476 2.67711 9.98748 2.70214C9.9274 2.72717 9.8811 2.76347 9.84855 2.81103C9.81601 2.85609 9.79974 2.90865 9.79974 2.96873C9.79974 3.03381 9.82102 3.09138 9.86357 3.14144C9.90613 3.189 9.96996 3.22655 10.0551 3.25408L10.592 3.42679C10.8173 3.49938 10.985 3.60076 11.0951 3.73092C11.2077 3.86108 11.2641 4.02003 11.2641 4.20777C11.2641 4.37047 11.2215 4.51565 11.1364 4.64331C11.0513 4.76846 10.9337 4.86734 10.7835 4.93993C10.6358 5.01001 10.4631 5.04506 10.2653 5.04506ZM11.4356 5L12.3818 2.20277H13.1553L14.1014 5H13.4669L13.2792 4.42929H12.2542L12.0664 5H11.4356ZM12.4156 3.92241H13.1177L12.6897 2.60077H12.8474L12.4156 3.92241ZM14.3921 5V2.20277H15.3045C15.6074 2.20277 15.8702 2.26285 16.093 2.383C16.3158 2.50315 16.4885 2.66835 16.6111 2.87861C16.7338 3.08887 16.7951 3.32917 16.7951 3.59951C16.7951 3.86985 16.7338 4.1114 16.6111 4.32416C16.4885 4.53442 16.3158 4.69963 16.093 4.81978C15.8702 4.93993 15.6074 5 15.3045 5H14.3921ZM14.9741 4.49312H15.3195C15.5023 4.49312 15.66 4.45682 15.7926 4.38423C15.9253 4.30914 16.0279 4.20526 16.1005 4.0726C16.1756 3.93743 16.2132 3.77973 16.2132 3.59951C16.2132 3.41678 16.1756 3.25909 16.1005 3.12642C16.0279 2.99376 15.9253 2.89113 15.7926 2.81854C15.66 2.74595 15.5023 2.70965 15.3195 2.70965H14.9741V4.49312ZM16.8476 5L17.7938 2.20277H18.5673L19.5134 5H18.8789L18.6912 4.42929H17.6662L17.4784 5H16.8476ZM17.8276 3.92241H18.5297L18.1017 2.60077H18.2594L17.8276 3.92241Z" fill="#004C99"/>
<path d="M11.2776 11.0811C10.9622 11.0811 10.6648 11.0248 10.3855 10.9121C10.1106 10.795 9.87183 10.6305 9.66908 10.4188C9.47084 10.207 9.32215 9.95695 9.22303 9.6686L10.0813 9.28337C10.2075 9.55821 10.381 9.77448 10.6017 9.93217C10.827 10.0899 11.0748 10.1687 11.3452 10.1687C11.4893 10.1687 11.6132 10.1462 11.7169 10.1011C11.8205 10.0561 11.9016 9.99525 11.9602 9.91866C12.0188 9.83756 12.048 9.74294 12.048 9.6348C12.048 9.51766 12.012 9.41853 11.9399 9.33743C11.8678 9.25183 11.7552 9.18424 11.602 9.13468L10.6153 8.81028C10.2143 8.67962 9.91238 8.49489 9.70963 8.25609C9.50688 8.01279 9.4055 7.72218 9.4055 7.38426C9.4055 7.08689 9.47759 6.82556 9.62177 6.60028C9.77046 6.375 9.97546 6.19928 10.2368 6.07313C10.5026 5.94697 10.8067 5.88389 11.1492 5.88389C11.451 5.88389 11.7304 5.93571 11.9872 6.03933C12.244 6.14296 12.4648 6.28939 12.6495 6.47863C12.8388 6.66787 12.9807 6.8954 13.0753 7.16123L12.2238 7.54646C12.1291 7.31217 11.9872 7.12969 11.798 6.99903C11.6087 6.86386 11.3925 6.79627 11.1492 6.79627C11.0095 6.79627 10.8856 6.8188 10.7775 6.86386C10.6693 6.90891 10.586 6.97425 10.5274 7.05985C10.4688 7.14095 10.4395 7.23557 10.4395 7.34371C10.4395 7.46085 10.4778 7.56448 10.5544 7.65459C10.631 7.7402 10.7459 7.80778 10.8991 7.85734L11.8656 8.16823C12.2711 8.29889 12.5729 8.48137 12.7712 8.71566C12.9739 8.94995 13.0753 9.23606 13.0753 9.57398C13.0753 9.86684 12.9987 10.1282 12.8455 10.358C12.6923 10.5832 12.4806 10.7612 12.2102 10.8919C11.9444 11.018 11.6335 11.0811 11.2776 11.0811ZM14.8897 11.0811C14.6239 11.0811 14.3941 11.0383 14.2003 10.9527C14.0066 10.8671 13.8579 10.7454 13.7543 10.5877C13.6506 10.4255 13.5988 10.234 13.5988 10.0133C13.5988 9.80602 13.6461 9.62354 13.7408 9.46584C13.8354 9.30364 13.9796 9.16847 14.1733 9.06034C14.3715 8.9522 14.6171 8.87561 14.91 8.83055L16.0386 8.64808V9.3915L15.0924 9.56046C14.9483 9.58749 14.8379 9.6348 14.7613 9.70239C14.6847 9.76547 14.6464 9.85783 14.6464 9.97948C14.6464 10.0921 14.6892 10.18 14.7748 10.2431C14.8604 10.3061 14.9663 10.3377 15.0924 10.3377C15.2591 10.3377 15.4056 10.3016 15.5317 10.2295C15.6579 10.1575 15.7548 10.0606 15.8223 9.93893C15.8944 9.81277 15.9305 9.67535 15.9305 9.52667V8.56698C15.9305 8.4273 15.8742 8.31016 15.7615 8.21554C15.6534 8.12092 15.5047 8.07361 15.3155 8.07361C15.1352 8.07361 14.9753 8.12317 14.8356 8.2223C14.7004 8.32142 14.6013 8.45208 14.5382 8.61428L13.7272 8.22906C13.7993 8.0218 13.9142 7.84383 14.0719 7.69514C14.2296 7.54646 14.4188 7.43156 14.6396 7.35046C14.8604 7.26936 15.1014 7.22881 15.3628 7.22881C15.6737 7.22881 15.9485 7.28513 16.1873 7.39777C16.4261 7.51041 16.6108 7.66811 16.7415 7.87086C16.8767 8.06911 16.9442 8.30115 16.9442 8.56698V11H15.9981V10.4053L16.2278 10.3647C16.1197 10.5269 16.0003 10.6621 15.8697 10.7702C15.739 10.8738 15.5926 10.9504 15.4304 11C15.2682 11.0541 15.0879 11.0811 14.8897 11.0811ZM19.3992 11.0406C18.9531 11.0406 18.6062 10.9212 18.3584 10.6824C18.1151 10.4391 17.9934 10.1011 17.9934 9.6686V8.18851H17.3717V7.30991H17.4054C17.5947 7.30991 17.7389 7.2626 17.838 7.16799C17.9416 7.07337 17.9934 6.93144 17.9934 6.74221V6.47187H19.0072V7.30991H19.8723V8.18851H19.0072V9.60101C19.0072 9.72717 19.0297 9.83305 19.0748 9.91866C19.1198 9.99976 19.1897 10.0606 19.2843 10.1011C19.3789 10.1417 19.496 10.162 19.6357 10.162C19.6673 10.162 19.7033 10.1597 19.7438 10.1552C19.7844 10.1507 19.8272 10.1462 19.8723 10.1417V11C19.8047 11.009 19.7281 11.018 19.6425 11.027C19.5569 11.036 19.4758 11.0406 19.3992 11.0406ZM21.791 11.0811C21.4936 11.0811 21.239 11.018 21.0273 10.8919C20.82 10.7612 20.6623 10.581 20.5542 10.3512C20.446 10.1214 20.392 9.85332 20.392 9.54694V7.30991H21.4057V9.46584C21.4057 9.60552 21.4328 9.72942 21.4868 9.83756C21.5454 9.94118 21.6265 10.0223 21.7301 10.0809C21.8338 10.1394 21.9509 10.1687 22.0816 10.1687C22.2167 10.1687 22.3339 10.1394 22.433 10.0809C22.5366 10.0223 22.6155 9.94118 22.6696 9.83756C22.7281 9.72942 22.7574 9.60552 22.7574 9.46584V7.30991H23.7712V11H22.825V10.2701L22.8791 10.4323C22.7935 10.6531 22.6538 10.8175 22.46 10.9257C22.2708 11.0293 22.0478 11.0811 21.791 11.0811ZM25.8009 11V5.96499H27.4431C27.9883 5.96499 28.4614 6.07313 28.8624 6.28939C29.2634 6.50566 29.5743 6.80303 29.7951 7.1815C30.0158 7.55997 30.1262 7.99251 30.1262 8.47912C30.1262 8.96572 30.0158 9.40051 29.7951 9.78349C29.5743 10.162 29.2634 10.4593 28.8624 10.6756C28.4614 10.8919 27.9883 11 27.4431 11H25.8009ZM26.8484 10.0876H27.4702C27.7991 10.0876 28.0829 10.0223 28.3217 9.89162C28.5605 9.75645 28.7453 9.56947 28.8759 9.33068C29.0111 9.08737 29.0787 8.80352 29.0787 8.47912C29.0787 8.15021 29.0111 7.86635 28.8759 7.62756C28.7453 7.38876 28.5605 7.20403 28.3217 7.07337C28.0829 6.94271 27.7991 6.87738 27.4702 6.87738H26.8484V10.0876ZM31.8649 11.0811C31.5991 11.0811 31.3693 11.0383 31.1755 10.9527C30.9818 10.8671 30.8331 10.7454 30.7295 10.5877C30.6258 10.4255 30.574 10.234 30.574 10.0133C30.574 9.80602 30.6213 9.62354 30.716 9.46584C30.8106 9.30364 30.9548 9.16847 31.1485 9.06034C31.3467 8.9522 31.5923 8.87561 31.8852 8.83055L33.0138 8.64808V9.3915L32.0676 9.56046C31.9235 9.58749 31.8131 9.6348 31.7365 9.70239C31.6599 9.76547 31.6216 9.85783 31.6216 9.97948C31.6216 10.0921 31.6644 10.18 31.75 10.2431C31.8356 10.3061 31.9415 10.3377 32.0676 10.3377C32.2343 10.3377 32.3808 10.3016 32.5069 10.2295C32.6331 10.1575 32.73 10.0606 32.7975 9.93893C32.8696 9.81277 32.9057 9.67535 32.9057 9.52667V8.56698C32.9057 8.4273 32.8494 8.31016 32.7367 8.21554C32.6286 8.12092 32.4799 8.07361 32.2907 8.07361C32.1104 8.07361 31.9505 8.12317 31.8108 8.2223C31.6756 8.32142 31.5765 8.45208 31.5134 8.61428L30.7024 8.22906C30.7745 8.0218 30.8894 7.84383 31.0471 7.69514C31.2048 7.54646 31.394 7.43156 31.6148 7.35046C31.8356 7.26936 32.0766 7.22881 32.338 7.22881C32.6489 7.22881 32.9237 7.28513 33.1625 7.39777C33.4013 7.51041 33.586 7.66811 33.7167 7.87086C33.8519 8.06911 33.9194 8.30115 33.9194 8.56698V11H32.9733V10.4053L33.203 10.3647C33.0949 10.5269 32.9755 10.6621 32.8449 10.7702C32.7142 10.8738 32.5678 10.9504 32.4056 11C32.2434 11.0541 32.0631 11.0811 31.8649 11.0811ZM36.3744 11.0406C35.9283 11.0406 35.5814 10.9212 35.3336 10.6824C35.0903 10.4391 34.9686 10.1011 34.9686 9.6686V8.18851H34.3469V7.30991H34.3806C34.5699 7.30991 34.7141 7.2626 34.8132 7.16799C34.9168 7.07337 34.9686 6.93144 34.9686 6.74221V6.47187H35.9824V7.30991H36.8475V8.18851H35.9824V9.60101C35.9824 9.72717 36.0049 9.83305 36.05 9.91866C36.095 9.99976 36.1649 10.0606 36.2595 10.1011C36.3541 10.1417 36.4712 10.162 36.6109 10.162C36.6425 10.162 36.6785 10.1597 36.7191 10.1552C36.7596 10.1507 36.8024 10.1462 36.8475 10.1417V11C36.7799 11.009 36.7033 11.018 36.6177 11.027C36.5321 11.036 36.451 11.0406 36.3744 11.0406ZM38.5837 11.0811C38.3179 11.0811 38.0881 11.0383 37.8943 10.9527C37.7006 10.8671 37.5519 10.7454 37.4483 10.5877C37.3446 10.4255 37.2928 10.234 37.2928 10.0133C37.2928 9.80602 37.3401 9.62354 37.4348 9.46584C37.5294 9.30364 37.6736 9.16847 37.8673 9.06034C38.0655 8.9522 38.3111 8.87561 38.604 8.83055L39.7326 8.64808V9.3915L38.7864 9.56046C38.6423 9.58749 38.5319 9.6348 38.4553 9.70239C38.3787 9.76547 38.3404 9.85783 38.3404 9.97948C38.3404 10.0921 38.3832 10.18 38.4688 10.2431C38.5544 10.3061 38.6603 10.3377 38.7864 10.3377C38.9531 10.3377 39.0996 10.3016 39.2257 10.2295C39.3519 10.1575 39.4488 10.0606 39.5163 9.93893C39.5884 9.81277 39.6245 9.67535 39.6245 9.52667V8.56698C39.6245 8.4273 39.5682 8.31016 39.4555 8.21554C39.3474 8.12092 39.1987 8.07361 39.0095 8.07361C38.8292 8.07361 38.6693 8.12317 38.5296 8.2223C38.3944 8.32142 38.2953 8.45208 38.2322 8.61428L37.4212 8.22906C37.4933 8.0218 37.6082 7.84383 37.7659 7.69514C37.9236 7.54646 38.1128 7.43156 38.3336 7.35046C38.5544 7.26936 38.7954 7.22881 39.0568 7.22881C39.3677 7.22881 39.6425 7.28513 39.8813 7.39777C40.1201 7.51041 40.3048 7.66811 40.4355 7.87086C40.5707 8.06911 40.6382 8.30115 40.6382 8.56698V11H39.6921V10.4053L39.9218 10.3647C39.8137 10.5269 39.6943 10.6621 39.5637 10.7702C39.433 10.8738 39.2866 10.9504 39.1244 11C38.9622 11.0541 38.7819 11.0811 38.5837 11.0811Z" fill="#3399FF"/>
<rect y="11.1992" width="2.8" height="5.6" rx="1.4" transform="rotate(-90 0 11.1992)" fill="#CCE5FF"/>
<rect x="5.59961" y="11.1992" width="11.2" height="2.8" rx="1.4" transform="rotate(-90 5.59961 11.1992)" fill="#004C99"/>
<path d="M5.60078 6.99766C5.60078 7.77085 4.97398 8.39766 4.20078 8.39766C3.42758 8.39766 2.80078 7.77085 2.80078 6.99766C2.80078 6.22446 3.42758 5.59766 4.20078 5.59766C4.97398 5.59766 5.60078 6.22446 5.60078 6.99766ZM3.85061 6.99766C3.85061 7.19105 4.00739 7.34783 4.20078 7.34783C4.39418 7.34783 4.55095 7.19105 4.55095 6.99766C4.55095 6.80426 4.39418 6.64749 4.20078 6.64749C4.00739 6.64749 3.85061 6.80426 3.85061 6.99766Z" fill="#3399FF"/>
<path d="M5.60078 4.20078C5.60078 4.97398 4.97398 5.60078 4.20078 5.60078C3.42758 5.60078 2.80078 4.97398 2.80078 4.20078C2.80078 3.42758 3.42758 2.80078 4.20078 2.80078C4.97398 2.80078 5.60078 3.42758 5.60078 4.20078ZM3.85061 4.20078C3.85061 4.39418 4.00739 4.55095 4.20078 4.55095C4.39418 4.55095 4.55095 4.39418 4.55095 4.20078C4.55095 4.00739 4.39418 3.85061 4.20078 3.85061C4.00739 3.85061 3.85061 4.00739 3.85061 4.20078Z" fill="#3399FF"/>
<path d="M2.8 6.99766C2.8 7.77085 2.1732 8.39766 1.4 8.39766C0.626801 8.39766 0 7.77085 0 6.99766C0 6.22446 0.626801 5.59766 1.4 5.59766C2.1732 5.59766 2.8 6.22446 2.8 6.99766ZM1.04983 6.99766C1.04983 7.19105 1.20661 7.34783 1.4 7.34783C1.59339 7.34783 1.75017 7.19105 1.75017 6.99766C1.75017 6.80426 1.59339 6.64749 1.4 6.64749C1.20661 6.64749 1.04983 6.80426 1.04983 6.99766Z" fill="#3399FF"/>
</svg>
