<svg width="11" height="16" viewBox="0 0 11 16" fill="none" xmlns="http://www.w3.org/2000/svg">
<path d="M1.26532 15.0451C1.0901 15.0451 0.9249 15.0138 0.769707 14.9512C0.617017 14.8861 0.484352 14.7947 0.371712 14.6771C0.261575 14.5595 0.178972 14.4205 0.123904 14.2603L0.600747 14.0463C0.670834 14.199 0.767204 14.3192 0.889856 14.4068C1.01501 14.4944 1.15268 14.5382 1.30287 14.5382C1.38297 14.5382 1.4518 14.5257 1.50938 14.5006C1.56695 14.4756 1.612 14.4418 1.64454 14.3993C1.67708 14.3542 1.69335 14.3016 1.69335 14.2416C1.69335 14.1765 1.67333 14.1214 1.63328 14.0764C1.59323 14.0288 1.53065 13.9912 1.44555 13.9637L0.897365 13.7835C0.674588 13.7109 0.50688 13.6083 0.39424 13.4756C0.2816 13.3404 0.22528 13.179 0.22528 12.9913C0.22528 12.826 0.26533 12.6809 0.345429 12.5557C0.428032 12.4306 0.541924 12.3329 0.687104 12.2628C0.834788 12.1928 1.00375 12.1577 1.19398 12.1577C1.36169 12.1577 1.51689 12.1865 1.65956 12.2441C1.80224 12.3016 1.92489 12.383 2.02752 12.4881C2.13265 12.5933 2.2115 12.7197 2.26406 12.8673L1.79098 13.0814C1.73841 12.9512 1.65956 12.8498 1.55443 12.7772C1.4493 12.7021 1.32915 12.6646 1.19398 12.6646C1.11639 12.6646 1.04755 12.6771 0.987477 12.7021C0.927403 12.7272 0.881095 12.7635 0.848555 12.811C0.816014 12.8561 0.799744 12.9087 0.799744 12.9687C0.799744 13.0338 0.821021 13.0914 0.863573 13.1414C0.906126 13.189 0.969956 13.2265 1.05506 13.2541L1.59198 13.4268C1.81726 13.4994 1.98497 13.6008 2.0951 13.7309C2.20774 13.8611 2.26406 14.02 2.26406 14.2078C2.26406 14.3705 2.22151 14.5156 2.13641 14.6433C2.0513 14.7685 1.93365 14.8673 1.78347 14.9399C1.63578 15.01 1.46307 15.0451 1.26532 15.0451ZM2.43563 15L3.38181 12.2028H4.15527L5.10145 15H4.46691L4.27918 14.4293H3.25415L3.06642 15H2.43563ZM3.4156 13.9224H4.11773L3.68969 12.6008H3.84739L3.4156 13.9224ZM5.39214 15V12.2028H6.30453C6.6074 12.2028 6.87023 12.2628 7.09301 12.383C7.31578 12.5031 7.4885 12.6684 7.61115 12.8786C7.7338 13.0889 7.79513 13.3292 7.79513 13.5995C7.79513 13.8698 7.7338 14.1114 7.61115 14.3242C7.4885 14.5344 7.31578 14.6996 7.09301 14.8198C6.87023 14.9399 6.6074 15 6.30453 15H5.39214ZM5.97411 14.4931H6.31954C6.50227 14.4931 6.65997 14.4568 6.79263 14.3842C6.9253 14.3091 7.02792 14.2053 7.10051 14.0726C7.17561 13.9374 7.21315 13.7797 7.21315 13.5995C7.21315 13.4168 7.17561 13.2591 7.10051 13.1264C7.02792 12.9938 6.9253 12.8911 6.79263 12.8185C6.65997 12.7459 6.50227 12.7097 6.31954 12.7097H5.97411V14.4931ZM7.84763 15L8.79381 12.2028H9.56727L10.5134 15H9.87891L9.69118 14.4293H8.66615L8.47842 15H7.84763ZM8.8276 13.9224H9.52973L9.10169 12.6008H9.25939L8.8276 13.9224Z" fill="#004C99"/>
<rect x="1" y="11.1992" width="2.8" height="5.6" rx="1.4" transform="rotate(-90 1 11.1992)" fill="#CCE5FF"/>
<rect x="6.59961" y="11.1992" width="11.2" height="2.8" rx="1.4" transform="rotate(-90 6.59961 11.1992)" fill="#004C99"/>
<path d="M6.60078 6.99766C6.60078 7.77085 5.97398 8.39766 5.20078 8.39766C4.42758 8.39766 3.80078 7.77085 3.80078 6.99766C3.80078 6.22446 4.42758 5.59766 5.20078 5.59766C5.97398 5.59766 6.60078 6.22446 6.60078 6.99766ZM4.85061 6.99766C4.85061 7.19105 5.00739 7.34783 5.20078 7.34783C5.39418 7.34783 5.55095 7.19105 5.55095 6.99766C5.55095 6.80426 5.39418 6.64749 5.20078 6.64749C5.00739 6.64749 4.85061 6.80426 4.85061 6.99766Z" fill="#3399FF"/>
<path d="M6.60078 4.19687C6.60078 4.97007 5.97398 5.59687 5.20078 5.59687C4.42758 5.59687 3.80078 4.97007 3.80078 4.19687C3.80078 3.42368 4.42758 2.79688 5.20078 2.79688C5.97398 2.79688 6.60078 3.42368 6.60078 4.19687ZM4.85061 4.19687C4.85061 4.39027 5.00739 4.54705 5.20078 4.54705C5.39418 4.54705 5.55095 4.39027 5.55095 4.19687C5.55095 4.00348 5.39418 3.8467 5.20078 3.8467C5.00739 3.8467 4.85061 4.00348 4.85061 4.19687Z" fill="#3399FF"/>
<path d="M3.8 6.99766C3.8 7.77085 3.1732 8.39766 2.4 8.39766C1.6268 8.39766 1 7.77085 1 6.99766C1 6.22446 1.6268 5.59766 2.4 5.59766C3.1732 5.59766 3.8 6.22446 3.8 6.99766ZM2.04983 6.99766C2.04983 7.19105 2.20661 7.34783 2.4 7.34783C2.59339 7.34783 2.75017 7.19105 2.75017 6.99766C2.75017 6.80426 2.59339 6.64749 2.4 6.64749C2.20661 6.64749 2.04983 6.80426 2.04983 6.99766Z" fill="#3399FF"/>
</svg>
